<?xml version="1.0" encoding="UTF-8"?><svg id="Ebene_1" xmlns="http://www.w3.org/2000/svg" viewBox="0 0 96 96"><defs><style>.cls-1{fill:#5e63ff;}.cls-2{stroke-width:1.04px;}.cls-2,.cls-3{fill:none;stroke:#5e63ff;stroke-miterlimit:10;}.cls-3{stroke-width:4px;}</style></defs><path class="cls-1" d="M28.94,66.32c2.43-.71,4.39-3.8,5.74-3.06.23.13.35.32.39.39.83,1.37-1.91,3.44-2.57,5.91-1.03,3.94,3.4,8.24,4.88,9.72,9.65,9.65,16.03,3.5,23.98-4.46l7.92-7.92c.86-.86.86-2.26,0-3.12l-10.95-10.95-.25.25c-5,4.74-8.81,5.2-13.81.19-6.42-6.42-2.38-11.08.51-14l-12.55-12.55c-.86-.86-2.26-.86-3.12,0l-7.92,7.92c-9.93,9.93-13.83,14.61-2.77,25.67,2.38,2.38,6.78,7.09,10.51,5.99ZM55.24,68.49c.27.27.27.72,0,1-4.02,4.29-5.99,2.94-9.8-.86-5.67-5.67-3.38-6.96-.79-9.67.27-.29.74-.31,1.02-.02l9.55,9.55ZM26.53,40.76c.29-.26.73-.25,1,.01l11.38,11.38c.28.28.27.74,0,1.01-3.54,3.51-4.76,4.14-10.21-1.3-4.04-4.04-6.91-6.8-2.17-11.11ZM49.27,48.3c1.45,1.45,2.81.1,4.65-1.74l16.57-16.57-2.84-2.84-16.57,16.57c-1.84,1.84-3.19,3.19-1.81,4.58ZM46.56,12.42c-.86-.86-2.26-.86-3.12,0l-6.24,6.24c-.86.86-.86,2.26,0,3.12l12.55,12.55,12.54-12.54-15.72-9.38ZM74.25,58.83c.86.86,2.26.86,3.12,0l6.24-6.24c.86-.86.86-2.26,0-3.12l-7.77-14.12-12.54,12.54,10.95,10.95Z"/><path class="cls-2" d="M58.08,53.1c-5,4.74-8.81,5.2-13.81.19-6.62-6.62-2.13-11.36.77-14.26l18.52-18.52c.31-.31.82-.31,1.13,0l4.23,4.23c.31.31.31.82,0,1.13l-17.85,17.85c-1.84,1.84-3.19,3.19-1.81,4.58s2.81.1,4.65-1.74l17.85-17.85c.31-.31.82-.31,1.13,0l4.23,4.23c.31.31.31.82,0,1.13l-19.04,19.04Z"/><circle class="cls-3" cx="48" cy="48" r="42.62"/></svg>